<svg xmlns="http://www.w3.org/2000/svg" width="32" height="32" viewBox="0 0 32 32">
    <path fill="#4285F4" fill-rule="evenodd" d="M5.624.057h21a5 5 0 0 1 5 5v21a5 5 0 0 1-5 5h-21a5 5 0 0 1-5-5v-21a5 5 0 0 1 5-5zm10.5 21.959c6.42 0 11.625-4.048 11.625-9.042s-5.204-9.042-11.625-9.042C9.704 3.932 4.5 7.98 4.5 12.974c0 2.357.847 4.292 2.747 5.901v7.076c3.45-2.85 5.803-4.199 7.06-4.045.592.072 1.2.11 1.818.11zM9.666 9.099h12.82v1.292H9.666V9.099zm0 2.583h12.82v1.292H9.666v-1.292zm0 2.584h7.75v1.291h-7.75v-1.291z"/>
</svg>
