<svg xmlns="http://www.w3.org/2000/svg" width="287" height="75" viewBox="0 0 287 75">
    <g fill="none" fill-rule="evenodd">
        <rect width="285" height="73" x="1" y="1" stroke="#2C0FEF" stroke-width="2" rx="4"/>
        <g fill="#2C0FEF">
            <text font-family="Roboto-Medium, Roboto" font-size="23" font-weight="400" transform="translate(43 23)">
                <tspan x=".472" y="21.971">SEND MESSAGE</tspan>
            </text>
            <path fill-rule="nonzero" d="M241.272 36.258l-4.845-5.357a1.15 1.15 0 0 1 .06-1.6 1.089 1.089 0 0 1 1.564.062l6.565 7.258a1.152 1.152 0 0 1 0 1.538l-6.565 7.258a1.089 1.089 0 0 1-1.564.062 1.15 1.15 0 0 1-.06-1.6l4.845-5.357h-13.166A1.12 1.12 0 0 1 227 37.39a1.12 1.12 0 0 1 1.106-1.132h13.166z"/>
        </g>
    </g>
</svg>
